<?xml version="1.0" standalone="no"?><!DOCTYPE svg PUBLIC "-//W3C//DTD SVG 1.1//EN" "http://www.w3.org/Graphics/SVG/1.1/DTD/svg11.dtd"><svg t="1778045480620" class="icon" viewBox="0 0 1024 1024" version="1.1" xmlns="http://www.w3.org/2000/svg" p-id="44837" xmlns:xlink="http://www.w3.org/1999/xlink" width="200" height="200"><path d="M512 555.218314c-135.081535 0-244.952898-109.893876-244.952898-244.975411 0-135.060045 109.871363-244.952898 244.952898-244.952898s244.9969 109.893876 244.9969 244.952898C756.9969 445.325461 647.081535 555.218314 512 555.218314zM512 132.633786c-97.945753 0-177.609117 79.685877-177.609117 177.609117 0 97.945753 79.663364 177.63163 177.609117 177.63163s177.653119-79.685877 177.653119-177.63163C689.653119 212.319663 609.945753 132.633786 512 132.633786z" fill="#231815" p-id="44838"></path><path d="M915.490657 958.708971c-18.58938 0-33.67189-15.08251-33.67189-33.67189 0-203.915249-165.903517-369.818767-369.818767-369.818767S142.181233 721.121831 142.181233 925.037081c0 18.58938-15.08251 33.67189-33.67189 33.67189s-33.67189-15.08251-33.67189-33.67189c0-241.051031 196.111516-437.162548 437.162548-437.162548s437.162548 196.111516 437.162548 437.162548C949.162548 943.627485 934.080038 958.708971 915.490657 958.708971z" fill="#231815" p-id="44839"></path></svg>