<?xml version="1.0" standalone="no"?><!DOCTYPE svg PUBLIC "-//W3C//DTD SVG 1.1//EN" "http://www.w3.org/Graphics/SVG/1.1/DTD/svg11.dtd"><svg t="1777881656794" class="icon" viewBox="0 0 1024 1024" version="1.1" xmlns="http://www.w3.org/2000/svg" p-id="10560" xmlns:xlink="http://www.w3.org/1999/xlink" width="200" height="200"><path d="M578.3 169.1c0 39.2 31.8 71 71 71s71-31.8 71-71-31.8-71-71-71c-39.3 0.1-71 31.8-71 71m206 189.5c-18.1 7.5-35.2 11.7-64-12.8-28.8-24.5-79-72.6-194.3-88.6 0 0-21.7-5.7-112.1 11.7-92.3 17.8-71.5 30.9-125.9 95.5L233.5 429s29-3.7 52.3 5.3c20.1 7.7 35.9 33 37.4 39.5 0 0 12.8-119.5 79-136.7 52.9-13.7 105.3-14.9 101.2-6.4-4.1 8.5-79.8 56.6-92.7 153.7-11.8 89.6 28.8 152.8-12.8 182.6 0 0-0.9 16.7-106.7 10.7-56.6-3.2-101.4-18.1-107.8 96.1-3.7 66.1 17.1 71.5 41.6 69.4s28.8-41.6 34.2-65.1c5.3-23.5 1.9-21.8 48-24.5 0 0 131.3 2.1 155.8-20.3 24.5-22.4 44.8-86.5 44.8-103.5s79-5.3 96.1 48C621 731.1 594 862.7 621 888c17.1 16 107.8 54.4 121.7 29.9 13.9-24.5 4.3-49.1-27.8-60.8-32-11.7-20.3-13.9-20.3-79s23.5-184.6-128.1-229.5c0 0-19-72.6 71.5-168.6 0 0 67.2 41.6 104.6 56.6 37.4 14.9 71.5-4.3 112.1-42.7 40.6-38.4 85.8-87.4 54.4-115.3-7-6.3-26.2-12.1-44.8 1.1 0-0.1-68.5 74.2-80 78.9z" fill="#1296db" p-id="10561"></path><path d="M314.6 509.1s-13.7-66.2-95-57.6l-14.9-8.5-70.4 118.5 128.1 76.8L336 523l-21.4-13.9zM194 434.4l-65.1 113.1-5.3 6.4-19.2-13.3 69.4-117.9 20.2 11.7zM364.8 540l-65.1 113.1-5.3 6.4-19.2-13.3 69.4-117.9 20.2 11.7z" fill="#1296db" p-id="10562"></path></svg>